

<svg xmlns="http://www.w3.org/2000/svg" id="0AdxdVb7Ki" viewBox="0 0 389.8947368421052 112.10528189676229" height="112.10528189676229" width="389.8947368421052" 
style="width: 389.895px; height: 112.105px; position: absolute; top: 0; left: 0; transform: translate(0, 0); z-index: 0; overflow: visible;">


<g id="SvgjsG4091" featurekey="v37d4h-0" transform="matrix(0.07675440158063525,0,0,0.07675440158063525,-55.65791079872858,-2.4324693642804895)">

<g xmlns="http://www.w3.org/2000/svg" transform="scale(8.571428571428571) translate(10, 10)">

<g id="SvgjsG1017" transform="matrix(0.6194690265486725,0,0,0.6194690265486725,71.54867256637169,-33.451327433628315)">

<g>

<g fill="#58D0D0">
<path d="M215,102.9c38,18,65,57,65,103c0,62-51,113-113,113c-19,0-37-5-52-13c6,1,13,2,19,2l0,0l0,0l0,0l0,0c33,0,62-13,84-35      c21-21,34-51,34-83l0,0l0,0l0,0l0,0c0-33-13-62-34-84C217,104.9,216,103.9,215,102.9z">
</path>
</g>

<g fill="#FC5286">
<path d="M236,224.9c-6,16-14,30-26,41c-19,19-46,31-76,31l0,0l0,0l0,0l0,0c-16,0-32-3-46-10c-20-19-33-46-34-76c4,6,8,11,13,16      c21,22,51,35,84,35l0,0l0,0l0,0l0,0c32,0,62-13,83-35C235,226.9,235,225.9,236,224.9z">
</path>
</g>

<g fill="#685898">
<path d="M167,92.9c4,0,8,0,12,0c-24,5-45,16-62,33c-21,21-34,51-34,83l0,0l0,0l0,0l0,0c0,7,0,13,2,20c-4-3-7-6-11-9      c-8-8-14-18-20-28C61,135.9,109,92.9,167,92.9z">
</path>
</g>

</g>
</g>


</g>
</g>

<g id="SvgjsG4092" featurekey="UxBHKT-0" transform="matrix(4.023318923263693,0,0,4.023318923263693,132.08046638416073,15.412267034954048)" fill="#344052">
<path d="M-0.02 9.04 l3.32 0 l2.56 5.38 l2.56 -5.38 l3.34 0 l-5.9 11.44 z M16.119999999999997 7.369999999999999 q-0.48 0.47 -1.16 0.47 q-0.7 0 -1.19 -0.47 t-0.49 -1.15 q0 -0.66 0.49 -1.13 t1.19 -0.47 q0.68 0 1.16 0.47 t0.48 1.13 q0 0.68 -0.48 1.15 z M13.459999999999999 9.02 l3 0 l0 10.98 l-3 0 l0 -10.98 z M22.22 7.369999999999999 q-0.48 0.47 -1.16 0.47 q-0.7 0 -1.19 -0.47 t-0.49 -1.15 q0 -0.66 0.49 -1.13 t1.19 -0.47 q0.68 0 1.16 0.47 t0.48 1.13 q0 0.68 -0.48 1.15 z M19.56 9.02 l3 0 l0 10.98 l-3 0 l0 -10.98 z M30.3 16.740000000000002 l-2.3 3.26 l-3.74 0 l4.14 -5.44 l-4.2 -5.52 l3.72 0 l2.38 3.38 l2.34 -3.38 l3.76 0 l-4.26 5.52 l4.16 5.44 l-3.76 0 z M37.62 15.6 l0 -2.72 l6.36 0 l0 2.72 l-6.36 0 z M54.879999999999995 18.9 q-0.38 0.52 -1.31 0.93 t-2.03 0.41 q-1.7 0 -2.95 -0.76 t-1.91 -2.07 t-0.66 -2.91 t0.66 -2.91 t1.91 -2.07 t2.95 -0.76 q1.14 0 2.01 0.39 t1.33 0.99 l0 -1.14 l2.96 0 l0 11 l-2.96 0 l0 -1.1 z M54.17999999999999 12.25 q-0.82 -0.87 -2.2 -0.87 q-1.4 0 -2.21 0.87 t-0.81 2.25 q0 1.34 0.83 2.22 t2.19 0.88 q1.4 0 2.21 -0.83 t0.81 -2.27 q0 -1.38 -0.82 -2.25 z M63.599999999999994 7.369999999999999 q-0.48 0.47 -1.16 0.47 q-0.7 0 -1.19 -0.47 t-0.49 -1.15 q0 -0.66 0.49 -1.13 t1.19 -0.47 q0.68 0 1.16 0.47 t0.48 1.13 q0 0.68 -0.48 1.15 z M60.94 9.02 l3 0 l0 10.98 l-3 0 l0 -10.98 z">
</path>
</g>
</svg>

